<mxfile host="app.diagrams.net" modified="2023-09-02T00:59:03.145Z" agent="Mozilla/5.0 (Macintosh; Intel Mac OS X 10_15_7) AppleWebKit/537.36 (KHTML, like Gecko) Chrome/116.0.0.0 Safari/537.36" etag="bhf6KIKFNCUuJbie2d0d" version="21.7.1" type="github">
  <diagram name="Page-1" id="V_C9YhNd82djP5Jn5Nui">
    <mxGraphModel dx="2347" dy="896" grid="1" gridSize="10" guides="1" tooltips="1" connect="1" arrows="1" fold="1" page="1" pageScale="1" pageWidth="827" pageHeight="1169" math="0" shadow="0">
      <root>
        <mxCell id="0" />
        <mxCell id="1" parent="0" />
        <mxCell id="zJxeYlZxJ97vLLtSq7D2-10" style="edgeStyle=orthogonalEdgeStyle;rounded=0;sketch=1;hachureGap=4;jiggle=2;curveFitting=1;orthogonalLoop=1;jettySize=auto;html=1;exitX=0.5;exitY=1;exitDx=0;exitDy=0;fontFamily=Architects Daughter;fontSource=https%3A%2F%2Ffonts.googleapis.com%2Fcss%3Ffamily%3DArchitects%2BDaughter;fontSize=16;" edge="1" parent="1" source="zJxeYlZxJ97vLLtSq7D2-1" target="zJxeYlZxJ97vLLtSq7D2-9">
          <mxGeometry relative="1" as="geometry" />
        </mxCell>
        <mxCell id="zJxeYlZxJ97vLLtSq7D2-1" value="&lt;font face=&quot;Comic Sans MS&quot;&gt;vue code&lt;/font&gt;" style="text;html=1;strokeColor=none;fillColor=none;align=center;verticalAlign=middle;whiteSpace=wrap;rounded=0;fontSize=20;fontFamily=Architects Daughter;" vertex="1" parent="1">
          <mxGeometry x="570" y="60" width="96" height="30" as="geometry" />
        </mxCell>
        <mxCell id="zJxeYlZxJ97vLLtSq7D2-3" value="&lt;font face=&quot;Comic Sans MS&quot;&gt;@vue/compiler-sfc&lt;/font&gt;" style="swimlane;fontStyle=0;childLayout=stackLayout;horizontal=1;startSize=30;horizontalStack=0;resizeParent=1;resizeParentMax=0;resizeLast=0;collapsible=1;marginBottom=0;whiteSpace=wrap;html=1;sketch=1;hachureGap=4;jiggle=2;curveFitting=1;fontFamily=Architects Daughter;fontSource=https%3A%2F%2Ffonts.googleapis.com%2Fcss%3Ffamily%3DArchitects%2BDaughter;fontSize=20;" vertex="1" parent="1">
          <mxGeometry x="-50" y="180" width="240" height="150" as="geometry">
            <mxRectangle x="-50" y="190" width="80" height="40" as="alternateBounds" />
          </mxGeometry>
        </mxCell>
        <mxCell id="zJxeYlZxJ97vLLtSq7D2-4" value="&lt;font face=&quot;Comic Sans MS&quot;&gt;parse&lt;/font&gt;" style="text;strokeColor=none;fillColor=none;align=center;verticalAlign=middle;spacingLeft=4;spacingRight=4;overflow=hidden;points=[[0,0.5],[1,0.5]];portConstraint=eastwest;rotatable=0;whiteSpace=wrap;html=1;fontSize=20;fontFamily=Architects Daughter;" vertex="1" parent="zJxeYlZxJ97vLLtSq7D2-3">
          <mxGeometry y="30" width="240" height="30" as="geometry" />
        </mxCell>
        <mxCell id="zJxeYlZxJ97vLLtSq7D2-7" value="&lt;font face=&quot;Comic Sans MS&quot;&gt;compileTemplate&lt;/font&gt;" style="text;strokeColor=none;fillColor=none;align=center;verticalAlign=middle;spacingLeft=4;spacingRight=4;overflow=hidden;points=[[0,0.5],[1,0.5]];portConstraint=eastwest;rotatable=0;whiteSpace=wrap;html=1;fontSize=20;fontFamily=Architects Daughter;" vertex="1" parent="zJxeYlZxJ97vLLtSq7D2-3">
          <mxGeometry y="60" width="240" height="30" as="geometry" />
        </mxCell>
        <mxCell id="zJxeYlZxJ97vLLtSq7D2-5" value="&lt;font face=&quot;Comic Sans MS&quot;&gt;compileScript&lt;/font&gt;" style="text;strokeColor=none;fillColor=none;align=center;verticalAlign=middle;spacingLeft=4;spacingRight=4;overflow=hidden;points=[[0,0.5],[1,0.5]];portConstraint=eastwest;rotatable=0;whiteSpace=wrap;html=1;fontSize=20;fontFamily=Architects Daughter;" vertex="1" parent="zJxeYlZxJ97vLLtSq7D2-3">
          <mxGeometry y="90" width="240" height="30" as="geometry" />
        </mxCell>
        <mxCell id="zJxeYlZxJ97vLLtSq7D2-6" value="&lt;font face=&quot;Comic Sans MS&quot;&gt;compileStyle&lt;/font&gt;" style="text;strokeColor=none;fillColor=none;align=center;verticalAlign=middle;spacingLeft=4;spacingRight=4;overflow=hidden;points=[[0,0.5],[1,0.5]];portConstraint=eastwest;rotatable=0;whiteSpace=wrap;html=1;fontSize=20;fontFamily=Architects Daughter;" vertex="1" parent="zJxeYlZxJ97vLLtSq7D2-3">
          <mxGeometry y="120" width="240" height="30" as="geometry" />
        </mxCell>
        <mxCell id="zJxeYlZxJ97vLLtSq7D2-12" style="edgeStyle=orthogonalEdgeStyle;rounded=0;sketch=1;hachureGap=4;jiggle=2;curveFitting=1;orthogonalLoop=1;jettySize=auto;html=1;exitX=0.5;exitY=1;exitDx=0;exitDy=0;entryX=0.5;entryY=0;entryDx=0;entryDy=0;fontFamily=Architects Daughter;fontSource=https%3A%2F%2Ffonts.googleapis.com%2Fcss%3Ffamily%3DArchitects%2BDaughter;fontSize=16;" edge="1" parent="1" source="zJxeYlZxJ97vLLtSq7D2-9" target="zJxeYlZxJ97vLLtSq7D2-11">
          <mxGeometry relative="1" as="geometry" />
        </mxCell>
        <mxCell id="zJxeYlZxJ97vLLtSq7D2-9" value="&lt;font color=&quot;#00cc00&quot; face=&quot;Comic Sans MS&quot;&gt;parse&lt;/font&gt;" style="text;html=1;strokeColor=none;fillColor=none;align=center;verticalAlign=middle;whiteSpace=wrap;rounded=0;fontSize=20;fontFamily=Architects Daughter;" vertex="1" parent="1">
          <mxGeometry x="570" y="120" width="96" height="30" as="geometry" />
        </mxCell>
        <mxCell id="zJxeYlZxJ97vLLtSq7D2-16" style="edgeStyle=orthogonalEdgeStyle;rounded=0;sketch=1;hachureGap=4;jiggle=2;curveFitting=1;orthogonalLoop=1;jettySize=auto;html=1;exitX=0.5;exitY=1;exitDx=0;exitDy=0;entryX=0.5;entryY=0;entryDx=0;entryDy=0;fontFamily=Architects Daughter;fontSource=https%3A%2F%2Ffonts.googleapis.com%2Fcss%3Ffamily%3DArchitects%2BDaughter;fontSize=16;" edge="1" parent="1" source="zJxeYlZxJ97vLLtSq7D2-11" target="zJxeYlZxJ97vLLtSq7D2-13">
          <mxGeometry relative="1" as="geometry" />
        </mxCell>
        <mxCell id="zJxeYlZxJ97vLLtSq7D2-17" style="edgeStyle=orthogonalEdgeStyle;rounded=0;sketch=1;hachureGap=4;jiggle=2;curveFitting=1;orthogonalLoop=1;jettySize=auto;html=1;exitX=0.5;exitY=1;exitDx=0;exitDy=0;entryX=0.5;entryY=0;entryDx=0;entryDy=0;fontFamily=Architects Daughter;fontSource=https%3A%2F%2Ffonts.googleapis.com%2Fcss%3Ffamily%3DArchitects%2BDaughter;fontSize=16;" edge="1" parent="1" source="zJxeYlZxJ97vLLtSq7D2-11" target="zJxeYlZxJ97vLLtSq7D2-14">
          <mxGeometry relative="1" as="geometry" />
        </mxCell>
        <mxCell id="zJxeYlZxJ97vLLtSq7D2-18" style="edgeStyle=orthogonalEdgeStyle;rounded=0;sketch=1;hachureGap=4;jiggle=2;curveFitting=1;orthogonalLoop=1;jettySize=auto;html=1;exitX=0.5;exitY=1;exitDx=0;exitDy=0;fontFamily=Architects Daughter;fontSource=https%3A%2F%2Ffonts.googleapis.com%2Fcss%3Ffamily%3DArchitects%2BDaughter;fontSize=16;" edge="1" parent="1" source="zJxeYlZxJ97vLLtSq7D2-11" target="zJxeYlZxJ97vLLtSq7D2-15">
          <mxGeometry relative="1" as="geometry" />
        </mxCell>
        <mxCell id="zJxeYlZxJ97vLLtSq7D2-11" value="&lt;font color=&quot;#ff8000&quot; face=&quot;Comic Sans MS&quot;&gt;descriptor&lt;/font&gt;" style="text;html=1;strokeColor=none;fillColor=none;align=center;verticalAlign=middle;whiteSpace=wrap;rounded=0;fontSize=20;fontFamily=Architects Daughter;" vertex="1" parent="1">
          <mxGeometry x="570" y="190" width="96" height="30" as="geometry" />
        </mxCell>
        <mxCell id="zJxeYlZxJ97vLLtSq7D2-22" style="edgeStyle=orthogonalEdgeStyle;rounded=0;sketch=1;hachureGap=4;jiggle=2;curveFitting=1;orthogonalLoop=1;jettySize=auto;html=1;exitX=0.5;exitY=1;exitDx=0;exitDy=0;entryX=0.5;entryY=0;entryDx=0;entryDy=0;fontFamily=Architects Daughter;fontSource=https%3A%2F%2Ffonts.googleapis.com%2Fcss%3Ffamily%3DArchitects%2BDaughter;fontSize=16;" edge="1" parent="1" source="zJxeYlZxJ97vLLtSq7D2-13" target="zJxeYlZxJ97vLLtSq7D2-19">
          <mxGeometry relative="1" as="geometry" />
        </mxCell>
        <mxCell id="zJxeYlZxJ97vLLtSq7D2-13" value="&lt;font face=&quot;Comic Sans MS&quot;&gt;template&lt;/font&gt;" style="text;html=1;strokeColor=none;fillColor=none;align=center;verticalAlign=middle;whiteSpace=wrap;rounded=0;fontSize=20;fontFamily=Architects Daughter;" vertex="1" parent="1">
          <mxGeometry x="350" y="270" width="96" height="30" as="geometry" />
        </mxCell>
        <mxCell id="zJxeYlZxJ97vLLtSq7D2-23" style="edgeStyle=orthogonalEdgeStyle;rounded=0;sketch=1;hachureGap=4;jiggle=2;curveFitting=1;orthogonalLoop=1;jettySize=auto;html=1;exitX=0.5;exitY=1;exitDx=0;exitDy=0;entryX=0.5;entryY=0;entryDx=0;entryDy=0;fontFamily=Architects Daughter;fontSource=https%3A%2F%2Ffonts.googleapis.com%2Fcss%3Ffamily%3DArchitects%2BDaughter;fontSize=16;" edge="1" parent="1" source="zJxeYlZxJ97vLLtSq7D2-14" target="zJxeYlZxJ97vLLtSq7D2-20">
          <mxGeometry relative="1" as="geometry" />
        </mxCell>
        <mxCell id="zJxeYlZxJ97vLLtSq7D2-14" value="&lt;font face=&quot;Comic Sans MS&quot;&gt;script&lt;/font&gt;" style="text;html=1;strokeColor=none;fillColor=none;align=center;verticalAlign=middle;whiteSpace=wrap;rounded=0;fontSize=20;fontFamily=Architects Daughter;" vertex="1" parent="1">
          <mxGeometry x="570" y="270" width="96" height="30" as="geometry" />
        </mxCell>
        <mxCell id="zJxeYlZxJ97vLLtSq7D2-24" style="edgeStyle=orthogonalEdgeStyle;rounded=0;sketch=1;hachureGap=4;jiggle=2;curveFitting=1;orthogonalLoop=1;jettySize=auto;html=1;exitX=0.5;exitY=1;exitDx=0;exitDy=0;entryX=0.5;entryY=0;entryDx=0;entryDy=0;fontFamily=Architects Daughter;fontSource=https%3A%2F%2Ffonts.googleapis.com%2Fcss%3Ffamily%3DArchitects%2BDaughter;fontSize=16;" edge="1" parent="1" source="zJxeYlZxJ97vLLtSq7D2-15" target="zJxeYlZxJ97vLLtSq7D2-21">
          <mxGeometry relative="1" as="geometry" />
        </mxCell>
        <mxCell id="zJxeYlZxJ97vLLtSq7D2-15" value="&lt;font face=&quot;Comic Sans MS&quot;&gt;style&lt;/font&gt;" style="text;html=1;strokeColor=none;fillColor=none;align=center;verticalAlign=middle;whiteSpace=wrap;rounded=0;fontSize=20;fontFamily=Architects Daughter;" vertex="1" parent="1">
          <mxGeometry x="780" y="270" width="96" height="30" as="geometry" />
        </mxCell>
        <mxCell id="zJxeYlZxJ97vLLtSq7D2-29" style="edgeStyle=orthogonalEdgeStyle;rounded=0;sketch=1;hachureGap=4;jiggle=2;curveFitting=1;orthogonalLoop=1;jettySize=auto;html=1;exitX=0.5;exitY=1;exitDx=0;exitDy=0;fontFamily=Architects Daughter;fontSource=https%3A%2F%2Ffonts.googleapis.com%2Fcss%3Ffamily%3DArchitects%2BDaughter;fontSize=16;" edge="1" parent="1" source="zJxeYlZxJ97vLLtSq7D2-19" target="zJxeYlZxJ97vLLtSq7D2-27">
          <mxGeometry relative="1" as="geometry" />
        </mxCell>
        <mxCell id="zJxeYlZxJ97vLLtSq7D2-19" value="&lt;font color=&quot;#00cc00&quot; face=&quot;Comic Sans MS&quot;&gt;compileTemplate&lt;/font&gt;" style="text;html=1;strokeColor=none;fillColor=none;align=center;verticalAlign=middle;whiteSpace=wrap;rounded=0;fontSize=20;fontFamily=Architects Daughter;" vertex="1" parent="1">
          <mxGeometry x="318" y="350" width="160" height="30" as="geometry" />
        </mxCell>
        <mxCell id="zJxeYlZxJ97vLLtSq7D2-30" style="edgeStyle=orthogonalEdgeStyle;rounded=0;sketch=1;hachureGap=4;jiggle=2;curveFitting=1;orthogonalLoop=1;jettySize=auto;html=1;exitX=0.5;exitY=1;exitDx=0;exitDy=0;fontFamily=Architects Daughter;fontSource=https%3A%2F%2Ffonts.googleapis.com%2Fcss%3Ffamily%3DArchitects%2BDaughter;fontSize=16;" edge="1" parent="1" source="zJxeYlZxJ97vLLtSq7D2-20" target="zJxeYlZxJ97vLLtSq7D2-27">
          <mxGeometry relative="1" as="geometry" />
        </mxCell>
        <mxCell id="zJxeYlZxJ97vLLtSq7D2-20" value="&lt;font face=&quot;Comic Sans MS&quot; color=&quot;#00cc00&quot;&gt;compileScript&lt;/font&gt;" style="text;html=1;strokeColor=none;fillColor=none;align=center;verticalAlign=middle;whiteSpace=wrap;rounded=0;fontSize=20;fontFamily=Architects Daughter;" vertex="1" parent="1">
          <mxGeometry x="538" y="350" width="160" height="30" as="geometry" />
        </mxCell>
        <mxCell id="zJxeYlZxJ97vLLtSq7D2-31" style="edgeStyle=orthogonalEdgeStyle;rounded=0;sketch=1;hachureGap=4;jiggle=2;curveFitting=1;orthogonalLoop=1;jettySize=auto;html=1;exitX=0.5;exitY=1;exitDx=0;exitDy=0;fontFamily=Architects Daughter;fontSource=https%3A%2F%2Ffonts.googleapis.com%2Fcss%3Ffamily%3DArchitects%2BDaughter;fontSize=16;" edge="1" parent="1" source="zJxeYlZxJ97vLLtSq7D2-21" target="zJxeYlZxJ97vLLtSq7D2-28">
          <mxGeometry relative="1" as="geometry" />
        </mxCell>
        <mxCell id="zJxeYlZxJ97vLLtSq7D2-21" value="&lt;font face=&quot;Comic Sans MS&quot; color=&quot;#00cc00&quot;&gt;compileStyle&lt;/font&gt;" style="text;html=1;strokeColor=none;fillColor=none;align=center;verticalAlign=middle;whiteSpace=wrap;rounded=0;fontSize=20;fontFamily=Architects Daughter;" vertex="1" parent="1">
          <mxGeometry x="748" y="350" width="160" height="30" as="geometry" />
        </mxCell>
        <mxCell id="zJxeYlZxJ97vLLtSq7D2-34" style="edgeStyle=orthogonalEdgeStyle;rounded=0;sketch=1;hachureGap=4;jiggle=2;curveFitting=1;orthogonalLoop=1;jettySize=auto;html=1;exitX=0.5;exitY=1;exitDx=0;exitDy=0;entryX=0.5;entryY=0;entryDx=0;entryDy=0;fontFamily=Architects Daughter;fontSource=https%3A%2F%2Ffonts.googleapis.com%2Fcss%3Ffamily%3DArchitects%2BDaughter;fontSize=16;" edge="1" parent="1" source="zJxeYlZxJ97vLLtSq7D2-27" target="zJxeYlZxJ97vLLtSq7D2-32">
          <mxGeometry relative="1" as="geometry" />
        </mxCell>
        <mxCell id="zJxeYlZxJ97vLLtSq7D2-27" value="&lt;font color=&quot;#00cc00&quot; face=&quot;Comic Sans MS&quot;&gt;sucrase.transform&lt;/font&gt;" style="text;html=1;strokeColor=none;fillColor=none;align=center;verticalAlign=middle;whiteSpace=wrap;rounded=0;fontSize=20;fontFamily=Architects Daughter;" vertex="1" parent="1">
          <mxGeometry x="420" y="430" width="190" height="30" as="geometry" />
        </mxCell>
        <mxCell id="zJxeYlZxJ97vLLtSq7D2-35" style="edgeStyle=orthogonalEdgeStyle;rounded=0;sketch=1;hachureGap=4;jiggle=2;curveFitting=1;orthogonalLoop=1;jettySize=auto;html=1;exitX=0.5;exitY=1;exitDx=0;exitDy=0;entryX=0.5;entryY=0;entryDx=0;entryDy=0;fontFamily=Architects Daughter;fontSource=https%3A%2F%2Ffonts.googleapis.com%2Fcss%3Ffamily%3DArchitects%2BDaughter;fontSize=16;" edge="1" parent="1" source="zJxeYlZxJ97vLLtSq7D2-28" target="zJxeYlZxJ97vLLtSq7D2-33">
          <mxGeometry relative="1" as="geometry" />
        </mxCell>
        <mxCell id="zJxeYlZxJ97vLLtSq7D2-28" value="&lt;font color=&quot;#00cc00&quot; face=&quot;Comic Sans MS&quot;&gt;less.render/sass.compileString&lt;/font&gt;" style="text;html=1;strokeColor=none;fillColor=none;align=center;verticalAlign=middle;whiteSpace=wrap;rounded=0;fontSize=20;fontFamily=Architects Daughter;" vertex="1" parent="1">
          <mxGeometry x="664.5" y="430" width="327" height="30" as="geometry" />
        </mxCell>
        <mxCell id="zJxeYlZxJ97vLLtSq7D2-32" value="&lt;font face=&quot;Comic Sans MS&quot;&gt;js&lt;/font&gt;" style="text;html=1;strokeColor=none;fillColor=none;align=center;verticalAlign=middle;whiteSpace=wrap;rounded=0;fontSize=20;fontFamily=Architects Daughter;" vertex="1" parent="1">
          <mxGeometry x="467" y="490" width="96" height="30" as="geometry" />
        </mxCell>
        <mxCell id="zJxeYlZxJ97vLLtSq7D2-33" value="&lt;font face=&quot;Comic Sans MS&quot;&gt;css&lt;/font&gt;" style="text;html=1;strokeColor=none;fillColor=none;align=center;verticalAlign=middle;whiteSpace=wrap;rounded=0;fontSize=20;fontFamily=Architects Daughter;" vertex="1" parent="1">
          <mxGeometry x="780" y="490" width="96" height="30" as="geometry" />
        </mxCell>
      </root>
    </mxGraphModel>
  </diagram>
</mxfile>
